<svg width="80" height="80" viewBox="0 0 80 80" fill="none" xmlns="http://www.w3.org/2000/svg">
<rect width="80" height="80" rx="40" fill="#4C65F6"/>
<path d="M33.7233 49.0425L28.1819 45.6215L28.7543 44.0484L28.6889 44.0744C28.2134 44.2638 27.7114 44.3574 27.2124 44.3574C26.4984 44.3574 25.7873 44.1656 25.1591 43.7892C24.0926 43.1491 23.3847 42.0469 23.246 40.8097L22.4524 33.715C22.439 33.5951 22.4512 33.4794 22.4486 33.3611L19.1439 42.4453C18.67 43.7478 19.0432 45.0238 19.3942 46.26C19.464 46.5061 21.7227 52.7792 21.7227 52.7792L17.2139 58.8791C16.2971 60.1193 16.5591 61.8687 17.8001 62.7862C18.2991 63.1558 18.8806 63.3334 19.459 63.3334C20.3149 63.3334 21.1601 62.9413 21.7073 62.1999L27.1205 54.8768C27.6849 54.1143 27.8221 53.118 27.4885 52.2309L27.2573 51.6178L29.3174 52.8896L28.6454 60.2868C28.5066 61.8233 29.6385 63.1821 31.1757 63.3216C31.2616 63.3294 31.3473 63.3332 31.4315 63.3332C32.8612 63.3332 34.0788 62.2426 34.2114 60.7919L35.0392 51.6727C35.1343 50.618 34.626 49.5991 33.7233 49.0425Z" fill="white"/>
<path d="M30.3853 32.8278L30.5973 34.722L32.3449 34.0258C32.9201 31.6827 31.6738 29.2343 29.3532 28.3905C27.1384 27.5835 24.7281 28.5183 23.5854 30.4858C24.2058 29.8539 25.026 29.4109 25.9746 29.3049C28.1729 29.0547 30.1406 30.6372 30.3853 32.8278Z" fill="white"/>
<path d="M30.4102 26.5452C33.1386 26.5452 35.3494 24.3337 35.3494 21.6061C35.3494 18.8784 33.1387 16.6667 30.4102 16.6667C27.6833 16.6667 25.4724 18.8784 25.4724 21.6061C25.4724 24.3337 27.6832 26.5452 30.4102 26.5452Z" fill="white"/>
<path d="M61.8214 45.5999H47.0534C45.8966 45.5999 44.958 46.5377 44.958 47.6953V53.5825C44.958 54.7402 45.8966 55.6779 47.0534 55.6779H61.8215C62.9784 55.6779 63.917 54.7401 63.917 53.5825V47.6953C63.9169 46.5377 62.9783 45.5999 61.8214 45.5999Z" fill="white"/>
<path d="M45.3574 42.7063H53.5896C54.7465 42.7063 55.6852 41.7685 55.6852 40.6108V35.3667C55.6852 34.209 54.7465 33.2712 53.5896 33.2712H45.3574C44.2005 33.2712 43.262 34.2091 43.262 35.3667V40.6108C43.262 41.7685 44.2005 42.7063 45.3574 42.7063Z" fill="white"/>
<path d="M59.926 57.8734H41.5658V39.613C41.5658 38.7315 40.8518 38.0166 39.9693 38.0166H39.2375H37.5683C37.7901 37.4658 37.8131 36.8338 37.5761 36.2384C37.0865 35.009 35.688 34.4158 34.4656 34.8999L29.2441 36.9798L28.7981 33.0056C28.6516 31.6905 27.4651 30.7394 26.1523 30.8915C24.8379 31.0388 23.8916 32.2229 24.0397 33.5373L24.8333 40.632C24.916 41.375 25.3401 42.0361 25.9808 42.4204C26.3582 42.6465 26.7837 42.7611 27.2125 42.7611C27.5118 42.7611 27.8128 42.705 28.0981 42.5911L33.3013 40.5189C33.5905 40.9266 34.0427 41.2098 34.5809 41.2098H35.8822H38.3727V59.4701C38.3727 60.3518 39.0868 61.0667 39.9693 61.0667H41.9182C42.1625 62.2744 43.2291 63.184 44.5095 63.184C45.7896 63.184 46.8562 62.2743 47.1005 61.0667H53.0939C53.3384 62.2744 54.4048 63.184 55.6852 63.184C56.9653 63.184 58.032 62.2743 58.2763 61.0667H59.9259C60.8084 61.0667 61.5225 60.3518 61.5225 59.4701C61.5226 58.5883 60.8085 57.8734 59.926 57.8734Z" fill="white"/>
</svg>
