<svg width="80" height="80" viewBox="0 0 80 80" fill="none" xmlns="http://www.w3.org/2000/svg">
<rect width="80" height="80" rx="40" fill="#4C65F6"/>
<path d="M56.4993 23.5009C52.0921 19.0939 46.2326 16.6667 40.0001 16.6667C33.7675 16.6667 27.9079 19.0939 23.5009 23.5009C19.0938 27.9079 16.6667 33.7674 16.6667 40.0001C16.6667 46.2326 19.0938 52.0921 23.5009 56.4992C27.908 60.9063 33.7675 63.3334 40.0001 63.3334C46.2325 63.3334 52.092 60.9063 56.4993 56.4992C60.9063 52.0921 63.3334 46.2326 63.3334 40.0001C63.3334 33.7675 60.9063 27.9079 56.4993 23.5009ZM33.0647 26.9892C35.1895 25.8529 37.5573 25.2587 40.0001 25.2587C48.1285 25.2587 54.7413 31.8717 54.7413 40.0001C54.7413 42.4432 54.147 44.8108 53.0108 46.9355L33.0647 26.9892ZM46.9355 53.0108C44.8108 54.147 42.4429 54.7413 40.0001 54.7413C31.8717 54.7413 25.2588 48.1284 25.2588 40.0001C25.2588 37.5573 25.8531 35.1893 26.9891 33.0648L46.9355 53.0108Z" fill="white"/>
</svg>
