<svg width="80" height="80" viewBox="0 0 80 80" fill="none" xmlns="http://www.w3.org/2000/svg">
<rect width="80" height="80" rx="40" fill="#4C65F6"/>
<path d="M62.3415 42.6333L51.5341 37.7303C51.0021 37.4888 50.3795 37.5282 49.8844 37.8353C49.389 38.1421 49.0891 38.6738 49.0891 39.2449V41.5241L40.7266 37.7303C40.1946 37.4888 39.5723 37.5282 39.0769 37.8353C38.5816 38.1421 38.2816 38.6738 38.2816 39.2449V41.5241L36.5185 40.7242V32.7019C36.5185 31.7789 35.7493 31.0307 34.8001 31.0307H32.888C31.9387 31.0307 31.1695 31.7789 31.1695 32.7019V38.2974L29.9192 37.7301C29.3874 37.4886 28.7649 37.528 28.2695 37.835C28.0486 37.9719 27.8694 38.155 27.7354 38.3647L26.9545 20.5999C26.9151 19.7055 26.1581 19 25.2377 19H21.9662C21.0493 19 20.2938 19.7001 20.2498 20.5907L19.395 37.8582L19.1118 37.7297C18.58 37.4881 17.9574 37.5275 17.462 37.8346C16.9667 38.1421 16.6667 38.6738 16.6667 39.2449V59.3288C16.6667 60.2518 17.4359 61 18.3852 61H61.615C62.5642 61 63.3334 60.2518 63.3334 59.3288V44.1479C63.3334 43.4986 62.9464 42.9078 62.3415 42.6333ZM26.5251 52.8886C26.5251 53.8115 25.756 54.5597 24.8067 54.5597H21.9082C20.959 54.5597 20.1898 53.8115 20.1898 52.8886V48.9047C20.1898 47.9818 20.959 47.2335 21.9082 47.2335H24.8067C25.756 47.2335 26.5251 47.9818 26.5251 48.9047V52.8886ZM49.9201 52.8886C49.9201 53.8115 49.1509 54.5597 48.2017 54.5597H45.3034C44.3542 54.5597 43.585 53.8115 43.585 52.8886V48.9047C43.585 47.9818 44.3542 47.2335 45.3034 47.2335H48.2017C49.1509 47.2335 49.9201 47.9818 49.9201 48.9047V52.8886ZM59.6509 52.8886C59.6509 53.8115 58.8817 54.5597 57.9324 54.5597H55.034C54.0847 54.5597 53.3155 53.8115 53.3155 52.8886V48.9047C53.3155 47.9818 54.0847 47.2335 55.034 47.2335H57.9324C58.8817 47.2335 59.6509 47.9818 59.6509 48.9047V52.8886Z" fill="white"/>
</svg>
