<svg width="80" height="80" viewBox="0 0 80 80" fill="none" xmlns="http://www.w3.org/2000/svg">
<rect width="80" height="80" rx="40" fill="#4C65F6"/>
<path d="M62.6064 53.8397L52.2679 43.5851C51.7993 43.1203 51.1743 42.8643 50.5081 42.8643C50.2264 42.8643 49.953 42.9128 49.6948 43.0007L47.2155 40.5416C46.8455 40.1744 46.352 39.9723 45.8262 39.9723C45.3005 39.9723 44.8071 40.1744 44.4371 40.5414L43.7851 41.1882L42.6188 40.0314L47.7224 34.9426C48.9149 35.4556 50.2111 35.7009 51.5501 35.7009C51.5503 35.7009 51.5506 35.7009 51.551 35.7009C54.1205 35.7009 56.5365 34.7347 58.3538 32.9322C60.7887 30.5173 61.7385 26.9806 60.8327 23.6813C60.7202 23.2709 60.3317 22.9796 59.9089 22.9796C59.727 22.9796 59.4566 23.0361 59.2029 23.2878C59.1682 23.3218 55.7304 26.7074 54.5944 27.8343C54.4693 27.9583 54.2629 27.9777 54.1425 27.9777C54.0562 27.9777 54.0086 27.9687 54.0086 27.9687V27.969L53.931 27.9602C52.5188 27.8316 50.8247 27.5725 50.3972 27.377C50.1934 26.9497 49.9483 25.2291 49.8174 23.8057V23.7866L49.7867 23.7466C49.7791 23.6836 49.7461 23.3623 50.0307 23.08C51.2132 21.907 54.4639 18.6535 54.4948 18.6225C54.7699 18.3498 54.8746 18.0068 54.7872 17.6813C54.6822 17.291 54.3477 17.0725 54.0708 16.9983C53.2505 16.7783 52.4018 16.6667 51.5499 16.6667C48.9801 16.6667 46.5639 17.6593 44.7468 19.4615C41.8783 22.3068 41.2057 26.5154 42.7238 30.003L37.6162 35.069L28.877 26.4009C28.8716 26.3956 28.8657 26.3912 28.8602 26.386C28.9427 26.0525 28.979 25.7061 28.9638 25.3535C28.9207 24.3493 28.4762 23.3788 27.7119 22.6209L24.6018 19.5357C24.5338 19.4682 24.1672 19.1318 23.624 19.1318C23.3718 19.1318 22.9949 19.2075 22.6312 19.5681L19.2225 22.9493C18.8268 23.3418 18.6858 23.8461 18.8356 24.3332C18.9361 24.6595 19.1314 24.8709 19.1889 24.9279L22.2875 28.0015C23.0968 28.8042 24.1322 29.2463 25.2029 29.2463H25.2031C25.5026 29.2463 25.7976 29.2098 26.0834 29.1401C26.0887 29.1455 26.0932 29.1514 26.0986 29.1567L34.8376 37.8249L30.6867 41.9422C30.4997 42.1277 30.3371 42.3308 30.1987 42.5468C28.9831 42.0099 27.6572 41.7248 26.2865 41.7248C23.7164 41.7248 21.3001 42.7177 19.4828 44.5202C17.048 46.9352 16.0982 50.4852 17.0039 53.7845C17.1164 54.1948 17.5049 54.4927 17.9276 54.4927H17.9277C18.1096 54.4927 18.38 54.4394 18.6337 54.1878C18.6684 54.1537 22.1063 50.7698 23.2423 49.6429C23.3674 49.5189 23.588 49.5004 23.7082 49.5004C23.7947 49.5004 23.8556 49.5098 23.8565 49.5098H23.8564L23.9202 49.5187C25.332 49.6471 27.0391 49.9061 27.4668 50.1019C27.6706 50.5293 27.935 52.2499 28.0632 53.6733L28.0724 53.7384C28.0732 53.7418 28.1198 54.0984 27.8167 54.3991C26.6341 55.5721 23.3782 58.8256 23.3473 58.8567C23.0722 59.1293 22.9648 59.4725 23.0523 59.7979C23.1573 60.1882 23.4905 60.4065 23.7673 60.4807C24.5877 60.7008 25.4357 60.8124 26.2877 60.8124C28.8576 60.8124 31.2735 59.8198 33.0904 58.0177C34.9078 56.2151 35.9088 53.8183 35.9086 51.2689C35.9086 49.9094 35.6214 48.5945 35.0801 47.3886C35.298 47.2513 35.5027 47.0901 35.6896 46.9046L39.8407 42.7872L41.0069 43.9439L40.3548 44.5908C39.9846 44.9578 39.7808 45.4472 39.7808 45.9687C39.7808 46.4903 39.9846 46.9797 40.3548 47.3467L42.834 49.8058C42.7454 50.062 42.6965 50.3332 42.6965 50.6125C42.6965 51.2732 42.9547 51.8931 43.4233 52.3579L53.7619 62.6126C54.2304 63.0773 54.8554 63.3334 55.5215 63.3334C56.1877 63.3334 56.8126 63.0773 57.2812 62.6126L62.6066 57.3303C63.0753 56.8654 63.3334 56.2456 63.3334 55.5849C63.3331 54.9245 63.0751 54.3045 62.6064 53.8397Z" fill="white"/>
</svg>
