<svg width="80" height="80" viewBox="0 0 80 80" fill="none" xmlns="http://www.w3.org/2000/svg">
<rect width="80" height="80" rx="40" fill="#4C65F6"/>
<path d="M56.3333 26.5833H48.75V23.6667C48.75 21.9649 48.074 20.3328 46.8706 19.1294C45.6672 17.926 44.0351 17.25 42.3333 17.25H37.6667C35.9649 17.25 34.3328 17.926 33.1294 19.1294C31.926 20.3328 31.25 21.9649 31.25 23.6667V26.5833H23.6667C21.9649 26.5833 20.3328 27.2594 19.1294 28.4627C17.926 29.6661 17.25 31.2982 17.25 33V36.2667C17.2477 37.7248 17.744 39.1399 18.6564 40.2773C19.5689 41.4147 20.8427 42.206 22.2667 42.52L37.6667 45.9267C39.2506 46.2687 40.8894 46.2687 42.4733 45.9267L57.8033 42.52C59.2273 42.206 60.5011 41.4147 61.4136 40.2773C62.326 39.1399 62.8223 37.7248 62.82 36.2667V33C62.8201 32.1514 62.6518 31.3113 62.325 30.5282C61.9981 29.7451 61.5192 29.0346 60.9159 28.4378C60.3127 27.841 59.597 27.3699 58.8104 27.0515C58.0238 26.7332 57.1819 26.5741 56.3333 26.5833ZM45.25 26.5833H34.75V23.6667C34.75 22.8931 35.0573 22.1513 35.6043 21.6043C36.1513 21.0573 36.8931 20.75 37.6667 20.75H42.3333C43.1069 20.75 43.8488 21.0573 44.3957 21.6043C44.9427 22.1513 45.25 22.8931 45.25 23.6667V26.5833Z" fill="white"/>
<path d="M43.1733 49.3334C42.1311 49.5637 41.0672 49.681 39.9999 49.6834C38.9402 49.6836 37.8837 49.5662 36.8499 49.3334L21.5199 45.9268C20.8547 45.7725 20.206 45.5537 19.5833 45.2734V56.3334C19.5833 58.0352 20.2593 59.6673 21.4626 60.8707C22.666 62.0741 24.2981 62.7501 25.9999 62.7501H53.9999C55.7017 62.7501 57.3338 62.0741 58.5372 60.8707C59.7405 59.6673 60.4166 58.0352 60.4166 56.3334V45.2734C59.7938 45.5537 59.1452 45.7725 58.4799 45.9268L43.1733 49.3334Z" fill="white"/>
</svg>
