<svg width="80" height="80" viewBox="0 0 80 80" fill="none" xmlns="http://www.w3.org/2000/svg">
<rect width="80" height="80" rx="40" fill="#4C65F6"/>
<path d="M40 43.7368C34.1958 43.7368 29.4727 48.46 29.4727 54.2641C29.4727 60.0683 34.1958 64.7915 40 64.7915C45.8041 64.7915 50.5273 60.0683 50.5273 54.2641C50.5273 48.46 45.8041 43.7368 40 43.7368ZM46.0156 55.768H40C39.1687 55.768 38.4961 55.0954 38.4961 54.2641V48.2485C38.4961 47.4173 39.1687 46.7446 40 46.7446C40.8312 46.7446 41.5039 47.4173 41.5039 48.2485V52.7602H46.0156C46.8468 52.7602 47.5195 53.4329 47.5195 54.2641C47.5195 55.0954 46.8468 55.768 46.0156 55.768Z" fill="white"/>
<path d="M23.457 22.6824C20.1393 22.6824 17.4414 25.3803 17.4414 28.698C17.4414 32.0157 20.1393 34.7136 23.457 34.7136C26.7747 34.7136 29.4726 32.0157 29.4726 28.698C29.4726 25.3803 26.7747 22.6824 23.457 22.6824Z" fill="white"/>
<path d="M56.543 22.6824C53.2252 22.6824 50.5273 25.3803 50.5273 28.698C50.5273 32.0157 53.2252 34.7136 56.543 34.7136C59.8607 34.7136 62.5586 32.0157 62.5586 28.698C62.5586 25.3803 59.8607 22.6824 56.543 22.6824Z" fill="white"/>
<path d="M40 16.6667C35.8539 16.6667 32.4805 20.0402 32.4805 24.1863C32.4805 28.3323 35.8539 31.7058 40 31.7058C44.146 31.7058 47.5195 28.3323 47.5195 24.1863C47.5195 20.0402 44.146 16.6667 40 16.6667Z" fill="white"/>
<path d="M56.5429 34.7134C55.3916 34.7134 54.285 34.9908 53.2373 35.4077C55.3399 38.2036 56.5429 41.6223 56.5429 45.2407V51.2563C56.5429 51.7861 56.4344 52.2875 56.2659 52.7602H64.1627C64.9939 52.7602 65.6666 52.0876 65.6666 51.2563V43.7368C65.6666 38.761 61.5187 34.7134 56.5429 34.7134Z" fill="white"/>
<path d="M23.4569 45.2407C23.4569 41.6216 24.6629 38.2047 26.7656 35.409C25.717 34.9911 24.6094 34.7134 23.4569 34.7134C18.4811 34.7134 14.3333 38.761 14.3333 43.7368V51.2563C14.3333 52.0876 15.0059 52.7602 15.8372 52.7602H23.7339C23.5654 52.2875 23.4569 51.7861 23.4569 51.2563V45.2407Z" fill="white"/>
<path d="M40 31.7058C32.8896 31.7058 26.4648 37.5959 26.4648 45.2409V51.2565C26.4648 51.5354 26.561 51.7819 26.693 52.0058C27.7758 45.6191 33.3097 40.7292 40 40.7292C46.6902 40.7292 52.2241 45.6191 53.3069 52.0058C53.4389 51.7819 53.5351 51.5354 53.5351 51.2565V45.2409C53.5351 37.6511 47.1676 31.7058 40 31.7058ZM40 39.522L37.0993 35.1711C38.027 34.9029 38.9871 34.7136 40 34.7136C41.0128 34.7136 41.9729 34.9029 42.9006 35.1711L40 39.522Z" fill="white"/>
</svg>
