<svg width="80" height="80" viewBox="0 0 80 80" fill="none" xmlns="http://www.w3.org/2000/svg">
<rect width="80" height="80" rx="40" fill="#4C65F6"/>
<path d="M52.0975 42.3872C51.7582 42.0112 51.2758 41.7962 50.7693 41.7949H29.2309C28.7244 41.7962 28.242 42.0112 27.9027 42.3872C27.5653 42.7652 27.3968 43.2642 27.436 43.7693L28.6924 56.1539L28.9257 58.4872C28.9574 58.9181 29.0542 59.3418 29.2129 59.7436C29.9553 61.9022 31.9918 63.3466 34.2745 63.3334H45.7257C48.0084 63.3466 50.0449 61.9022 50.7873 59.7436C50.946 59.3418 51.0428 58.9181 51.0745 58.4872L51.3078 56.1539L52.5642 43.7693C52.6035 43.2642 52.4349 42.7652 52.0975 42.3872Z" fill="white"/>
<path d="M45.3845 48.9744C44.3932 48.9744 43.5897 48.1709 43.5897 47.1795V40C43.5897 38.0175 41.9825 36.4103 39.9999 36.4103C38.0174 36.4103 36.4102 38.0175 36.4102 40V47.1795C36.4102 48.1709 35.6066 48.9744 34.6153 48.9744C33.624 48.9744 32.8204 48.1709 32.8204 47.1795V40C32.8204 36.0349 36.0348 32.8206 39.9999 32.8206C43.965 32.8206 47.1794 36.0349 47.1794 40V47.1795C47.1794 48.1709 46.3759 48.9744 45.3845 48.9744Z" fill="white"/>
<path d="M57.9487 16.6667H22.0512C19.0812 16.6756 16.6755 19.0812 16.6666 22.0514V29.2309C16.6666 30.2222 17.4702 31.0257 18.4615 31.0257H61.5384C62.5297 31.0257 63.3333 30.2222 63.3333 29.2309V22.0514C63.3244 19.0812 60.9188 16.6756 57.9487 16.6667ZM26.9153 25.1206C26.2115 25.8244 25.0704 25.8244 24.3666 25.1206C23.6628 24.4168 23.6628 23.2757 24.3666 22.5719C25.0647 21.8681 26.2011 21.8634 26.9049 22.5614C27.2474 22.901 27.4387 23.364 27.4359 23.8462C27.4289 24.3214 27.243 24.7764 26.9153 25.1206ZM32.3 25.1206C31.5961 25.8244 30.4551 25.8244 29.7512 25.1206C29.0474 24.4168 29.0474 23.2757 29.7512 22.5719C30.4493 21.8681 31.5857 21.8634 32.2895 22.5614C32.632 22.901 32.8233 23.364 32.8205 23.8462C32.8135 24.3214 32.6276 24.7764 32.3 25.1206ZM37.6846 25.1206C36.9865 25.8244 35.8501 25.8291 35.1463 25.131C34.8039 24.7915 34.6125 24.3285 34.6153 23.8462C34.6181 23.6117 34.6669 23.38 34.7589 23.1642C34.85 22.9468 34.9775 22.7464 35.1359 22.5719C35.8556 21.9078 36.9648 21.9078 37.6846 22.5719C37.843 22.7464 37.9704 22.9468 38.0615 23.1642C38.1535 23.38 38.2023 23.6117 38.2051 23.8462C38.1981 24.3214 38.0122 24.7764 37.6846 25.1206Z" fill="white"/>
<path d="M63.3333 22.0514V54.3591C63.3244 57.3292 60.9188 59.7348 57.9487 59.7437H48.1846C47.7262 59.7396 47.2855 59.5672 46.9461 59.2591C47.2656 58.9644 47.4639 58.5612 47.5025 58.1283L47.7 56.2257C47.8562 56.1742 48.0201 56.1499 48.1846 56.1539H57.9487C58.94 56.1539 59.7435 55.3504 59.7435 54.3591V22.0514C59.7435 21.06 58.94 20.2565 57.9487 20.2565H22.0512C21.0599 20.2565 20.2564 21.06 20.2564 22.0514V54.3591C20.2564 55.3504 21.0599 56.1539 22.0512 56.1539H31.8153C31.9798 56.1499 32.1437 56.1742 32.3 56.2257L32.4974 58.1283C32.536 58.5612 32.7343 58.9644 33.0538 59.2591C32.7145 59.5672 32.2737 59.7396 31.8153 59.7437H22.0512C19.0811 59.7348 16.6755 57.3292 16.6666 54.3591V22.0514C16.6755 19.0812 19.0812 16.6756 22.0512 16.6667H57.9487C60.9188 16.6756 63.3244 19.0812 63.3333 22.0514Z" fill="white"/>
</svg>
