<svg width="80" height="80" viewBox="0 0 80 80" fill="none" xmlns="http://www.w3.org/2000/svg">
<rect width="80" height="80" rx="40" fill="#4C65F6"/>
<path d="M62.5951 37.7541L41.3832 19.5127C40.5873 18.8291 39.4126 18.8291 38.6166 19.5127L17.4048 37.7541C16.5155 38.5183 16.4164 39.8576 17.18 40.7457C17.9435 41.6343 19.2845 41.7331 20.1707 40.971L39.9999 23.9185L59.8293 40.971C60.2294 41.3154 60.7206 41.4834 61.2108 41.4834C61.8075 41.4834 62.4009 41.2332 62.8201 40.7455C63.5835 39.8576 63.4844 38.5182 62.5951 37.7541Z" fill="white"/>
<path d="M34.0471 62.4848V57.292L32.8916 62.4848H34.0471Z" fill="white"/>
<path d="M45.9526 62.4848H47.1082L45.9526 57.292V62.4848Z" fill="white"/>
<path d="M40.6928 26.8924C40.2957 26.5495 39.7044 26.5495 39.3074 26.8924L23.3223 40.6808C23.0893 40.8819 22.9547 41.175 22.9547 41.4833V61.4236C22.9547 62.0094 23.4296 62.4845 24.0159 62.4845H28.5349L31.1386 50.8406C31.2671 50.2806 31.6056 49.7726 32.1451 49.4653C32.2779 49.3898 35.2644 47.7452 39.1847 47.53L39.7134 48.5909H39.7316L38.2985 59.7431L39.8683 62.4846H40.1315L41.7013 59.7431L40.2682 48.5909H40.2815L40.8131 47.53C44.7315 47.7452 47.7219 49.3898 47.8547 49.4653C48.3944 49.7726 48.7327 50.2806 48.8612 50.8406L51.4649 62.4845H55.9839C56.5702 62.4845 57.0451 62.0096 57.0451 61.4236V41.4835C57.0451 41.1752 56.9105 40.8819 56.6775 40.681L40.6928 26.8924ZM40.0001 47.0516C37.0308 47.0516 34.6214 43.6087 34.6214 40.6394C34.6214 37.6701 37.0308 35.2629 40.0001 35.2629C42.9675 35.2629 45.3758 37.6701 45.3758 40.6394C45.3758 43.6087 42.9675 47.0516 40.0001 47.0516Z" fill="white"/>
</svg>
