<svg width="56" height="48" viewBox="0 0 56 48" fill="none" xmlns="http://www.w3.org/2000/svg">
<circle cx="24" cy="24" r="24" fill="#00AAFF" fill-opacity="0.4"/>
<rect x="8" width="48" height="48" rx="24" fill="#00AAFF"/>
<rect x="8" width="48" height="48" rx="24" fill="black" fill-opacity="0.2"/>
<path d="M44.7977 34.2076L36.804 26.2139C36.0956 27.2185 35.2184 28.0956 34.2139 28.804L42.2076 36.7977C42.9217 37.5119 44.0837 37.5119 44.7977 36.7977C45.5119 36.0837 45.5119 34.9217 44.7977 34.2076Z" fill="white"/>
<path d="M28.0801 10.6667C22.8896 10.6667 18.6667 14.8896 18.6667 20.0801C18.6667 25.2706 22.8896 29.4934 28.0801 29.4934C33.2707 29.4934 37.4934 25.2706 37.4934 20.0801C37.4935 14.8896 33.2706 10.6667 28.0801 10.6667ZM28.0801 27.5835C23.9427 27.5835 20.5766 24.2175 20.5766 20.0801C20.5767 15.9427 23.9427 12.5766 28.0801 12.5766C32.2176 12.5766 35.5836 15.9426 35.5836 20.0801C35.5835 24.2175 32.2175 27.5835 28.0801 27.5835Z" fill="white"/>
<path d="M28.08 13.8318C24.6348 13.8318 21.8318 16.6348 21.8318 20.08C21.8318 23.5253 24.6348 26.3282 28.08 26.3282C31.5253 26.3282 34.3282 23.5253 34.3282 20.08C34.3282 16.6348 31.5253 13.8318 28.08 13.8318ZM25.9111 21.9111C25.9111 22.2577 25.6301 22.5387 25.2835 22.5387C24.9368 22.5387 24.6558 22.2577 24.6558 21.9111V20.135C24.6558 19.7883 24.9368 19.5074 25.2835 19.5074C25.6301 19.5074 25.9111 19.7883 25.9111 20.135V21.9111ZM28.7076 21.9111C28.7076 22.2577 28.4266 22.5387 28.08 22.5387C27.7333 22.5387 27.4524 22.2577 27.4524 21.9111V18.6468C27.4524 18.3002 27.7333 18.0192 28.08 18.0192C28.4266 18.0192 28.7076 18.3002 28.7076 18.6468V21.9111ZM31.5041 21.9111C31.5041 22.2577 31.2231 22.5387 30.8765 22.5387C30.5299 22.5387 30.2489 22.2577 30.2489 21.9111V18.8868C30.2489 18.5402 30.5299 18.2592 30.8765 18.2592C31.2231 18.2592 31.5041 18.5402 31.5041 18.8868V21.9111Z" fill="white"/>
</svg>
