<svg width="56" height="48" viewBox="0 0 56 48" fill="none" xmlns="http://www.w3.org/2000/svg">
<circle cx="24" cy="24" r="24" fill="#FF4053" fill-opacity="0.4"/>
<rect x="8" width="48" height="48" rx="24" fill="#FF4053"/>
<path d="M43.4797 13.3333C41.7225 13.3333 40.2929 14.7629 40.2929 16.5201C40.2929 17.5373 40.7723 18.4438 41.5166 19.0277L37.3697 22.2757L33.8364 19.1222C34.6526 18.5446 35.1868 17.5936 35.1868 16.5201C35.1868 14.7629 33.7572 13.3333 31.9999 13.3333C30.2427 13.3333 28.8131 14.7629 28.8131 16.5201C28.8131 17.5936 29.3473 18.5441 30.163 19.1219L26.6297 22.2757L22.4832 19.0277C23.2274 18.4438 23.7069 17.5373 23.7069 16.5201C23.7069 14.7629 22.2773 13.3333 20.5201 13.3333C18.7629 13.3333 17.3333 14.7629 17.3333 16.5201C17.3333 18.0565 18.426 19.3424 19.8753 19.6414L21.2615 28.5068H42.7383L44.1245 19.6414C45.5738 19.3424 46.6666 18.0565 46.6666 16.5201C46.6666 14.7629 45.237 13.3333 43.4797 13.3333Z" fill="white"/>
<path d="M21.5303 30.2256L22.152 34.2018H41.8478L42.4695 30.2256H21.5303Z" fill="white"/>
</svg>
