<svg width="56" height="48" viewBox="0 0 56 48" fill="none" xmlns="http://www.w3.org/2000/svg">
<circle cx="24" cy="24" r="24" fill="#04E061" fill-opacity="0.4"/>
<rect x="8" width="48" height="48" rx="24" fill="#04E061"/>
<path d="M37.3335 19.6667C37.1281 19.6666 36.9277 19.6032 36.7595 19.4852C36.5914 19.3672 36.4636 19.2002 36.3937 19.0071C36.3238 18.8139 36.315 18.6039 36.3687 18.4056C36.4223 18.2072 36.5358 18.0303 36.6935 17.8987L44.6935 11.232C44.898 11.0698 45.1579 10.9939 45.4176 11.0206C45.6773 11.0474 45.9162 11.1746 46.0833 11.3752C46.2504 11.5758 46.3325 11.8337 46.312 12.094C46.2915 12.3542 46.17 12.5961 45.9735 12.768L37.9735 19.4347C37.7941 19.5848 37.5675 19.6669 37.3335 19.6667Z" fill="white"/>
<path d="M45.4401 14.9467L38.8268 20.4534C38.4113 20.81 37.8809 21.0042 37.3334 21.0001C36.8553 20.9986 36.3892 20.8502 35.9982 20.5751C35.6071 20.3 35.3101 19.9114 35.1471 19.4619C34.9842 19.0124 34.9633 18.5237 35.0872 18.0619C35.2112 17.6001 35.474 17.1876 35.8401 16.8801L39.6934 13.6667H21.3334C20.8518 13.6664 20.3748 13.761 19.9298 13.9451C19.4848 14.1293 19.0805 14.3994 18.7399 14.7399C18.3994 15.0805 18.1293 15.4848 17.9451 15.9298C17.761 16.3748 17.6664 16.8518 17.6667 17.3334V33.3334C17.6664 33.815 17.761 34.292 17.9451 34.737C18.1293 35.182 18.3994 35.5864 18.7399 35.9269C19.0805 36.2675 19.4848 36.5375 19.9298 36.7217C20.3748 36.9058 20.8518 37.0004 21.3334 37.0001H42.6667C43.1484 37.0004 43.6253 36.9058 44.0703 36.7217C44.5154 36.5375 44.9197 36.2675 45.2603 35.9269C45.6008 35.5864 45.8709 35.182 46.055 34.737C46.2392 34.292 46.3338 33.815 46.3334 33.3334V17.3334C46.3349 16.4559 46.0174 15.6077 45.4401 14.9467ZM25.3334 19.0001H32.0001C32.2653 19.0001 32.5197 19.1054 32.7072 19.293C32.8947 19.4805 33.0001 19.7349 33.0001 20.0001C33.0001 20.2653 32.8947 20.5197 32.7072 20.7072C32.5197 20.8947 32.2653 21.0001 32.0001 21.0001H25.3334C25.0682 21.0001 24.8138 20.8947 24.6263 20.7072C24.4388 20.5197 24.3334 20.2653 24.3334 20.0001C24.3334 19.7349 24.4388 19.4805 24.6263 19.293C24.8138 19.1054 25.0682 19.0001 25.3334 19.0001ZM38.6667 31.6667H25.3334C25.0682 31.6667 24.8138 31.5614 24.6263 31.3739C24.4388 31.1863 24.3334 30.932 24.3334 30.6667C24.3334 30.4015 24.4388 30.1472 24.6263 29.9596C24.8138 29.7721 25.0682 29.6667 25.3334 29.6667H38.6667C38.932 29.6667 39.1863 29.7721 39.3739 29.9596C39.5614 30.1472 39.6667 30.4015 39.6667 30.6667C39.6667 30.932 39.5614 31.1863 39.3739 31.3739C39.1863 31.5614 38.932 31.6667 38.6667 31.6667ZM38.6667 26.3334H25.3334C25.0682 26.3334 24.8138 26.2281 24.6263 26.0405C24.4388 25.853 24.3334 25.5986 24.3334 25.3334C24.3334 25.0682 24.4388 24.8138 24.6263 24.6263C24.8138 24.4388 25.0682 24.3334 25.3334 24.3334H38.6667C38.932 24.3334 39.1863 24.4388 39.3739 24.6263C39.5614 24.8138 39.6667 25.0682 39.6667 25.3334C39.6667 25.5986 39.5614 25.853 39.3739 26.0405C39.1863 26.2281 38.932 26.3334 38.6667 26.3334Z" fill="white"/>
</svg>
