<svg width="56" height="48" viewBox="0 0 56 48" fill="none" xmlns="http://www.w3.org/2000/svg">
<circle cx="24" cy="24" r="24" fill="#965EEB" fill-opacity="0.4"/>
<rect x="8" width="48" height="48" rx="24" fill="#965EEB"/>
<path d="M30.6445 23.511C34.5596 23.511 37.7334 20.3372 37.7334 16.4221C37.7334 12.5071 34.5596 9.33325 30.6445 9.33325C26.7294 9.33325 23.5556 12.5071 23.5556 16.4221C23.5556 20.3372 26.7294 23.511 30.6445 23.511ZM34.0026 19.2358C33.68 20.3021 32.2987 21.1036 30.6431 21.1036C28.9875 21.1036 27.6061 20.302 27.2837 19.2358H34.0026ZM45.5556 33.7777V34.7555C45.5556 35.0255 45.3368 35.2444 45.0668 35.2444H42.1334V38.1777C42.1334 38.4477 41.9146 38.6666 41.6446 38.6666H40.6668C40.3968 38.6666 40.178 38.4477 40.178 38.1777V35.2444H37.2445C36.9745 35.2444 36.7557 35.0256 36.7557 34.7555V33.7777C36.7557 33.5077 36.9745 33.2889 37.2445 33.2889H40.1779V30.3555C40.1779 30.0855 40.3968 29.8666 40.6667 29.8666H41.6445C41.9145 29.8666 42.1334 30.0855 42.1334 30.3555V33.2889H45.0667C45.3368 33.2888 45.5556 33.5077 45.5556 33.7777ZM35.7779 33.7777V34.7555C35.7779 35.0152 35.8514 35.2558 35.9703 35.4676C34.494 35.6281 32.7341 35.7332 30.6445 35.7332C23.8093 35.7332 20.4645 34.6163 19.2381 34.0707C18.9217 33.9299 18.6667 33.5274 18.6667 33.181V30.8444C18.6667 27.3428 21.3328 24.4379 24.7347 24.0488C24.8381 24.037 24.9913 24.0813 25.0756 24.1422C26.6442 25.2777 28.5644 25.9555 30.6445 25.9555C32.7246 25.9555 34.6449 25.2777 36.2135 24.1422C36.2977 24.0813 36.451 24.037 36.5544 24.0488C39.3701 24.3708 41.6766 26.4184 42.3896 29.0992C42.1705 28.9687 41.9176 28.8889 41.6445 28.8889H40.6667C39.858 28.8889 39.2001 29.5467 39.2001 30.3555V32.3111H37.2445C36.4358 32.311 35.7779 32.9689 35.7779 33.7777Z" fill="white"/>
</svg>
