<svg width="56" height="48" viewBox="0 0 56 48" fill="none" xmlns="http://www.w3.org/2000/svg">
<circle cx="24" cy="24" r="24" fill="#4C65F6" fill-opacity="0.4"/>
<rect x="8" width="48" height="48" rx="24" fill="#4C65F6"/>
<path d="M41.0496 25.338L37.9434 28.2823L38.6767 32.4395C38.9507 33.9953 37.2701 35.1765 35.8394 34.4438L31.9998 32.4811L28.1603 34.4438C26.7328 35.176 25.0486 33.9975 25.323 32.4395L26.0563 28.2823L22.9501 25.338C21.7896 24.2391 22.4307 22.3207 24.0335 22.0947L28.3265 21.488L30.246 17.7058C30.9611 16.297 33.0328 16.2884 33.7537 17.7058L35.6731 21.488L39.9661 22.0947C41.5692 22.3207 42.2099 24.2392 41.0496 25.338Z" fill="white"/>
<path d="M46.2208 19.9205L43.8504 22.1672L44.4102 25.3398C44.6163 26.5091 43.3503 27.3987 42.275 26.8479L41.3541 26.3773C41.702 26.0477 41.8671 25.9064 42.0532 25.6606C43.3526 23.9429 42.3073 21.4643 40.1068 21.1541L36.3229 20.6193L34.6326 17.2893L36.5606 17.0171L38.0254 14.1304C38.5653 13.0675 40.1249 13.0676 40.6647 14.1304L42.1295 17.0171L45.4056 17.48C46.6096 17.6492 47.095 19.0911 46.2208 19.9205Z" fill="white"/>
<path d="M29.3674 17.2892L27.6771 20.6192L23.8931 21.154C21.4881 21.4931 20.5278 24.3709 22.2676 26.0189L22.6459 26.3773L21.7249 26.8479C20.6459 27.4001 19.3838 26.5078 19.5898 25.3397L20.1495 22.1672L17.7791 19.9204C16.9045 19.0907 17.3905 17.6491 18.5949 17.48L21.8704 17.0171L23.3352 14.1303C23.8751 13.0675 25.4346 13.0676 25.9745 14.1303L27.4393 17.0171L29.3674 17.2892Z" fill="white"/>
</svg>
