<svg width="56" height="48" viewBox="0 0 56 48" fill="none" xmlns="http://www.w3.org/2000/svg">
<circle cx="24" cy="24" r="24" fill="#965EEB" fill-opacity="0.4"/>
<rect x="8" width="48" height="48" rx="24" fill="#965EEB"/>
<path d="M22.9284 27.1566C23.6662 27.8166 24.5029 28.34 25.3995 28.7333L30.1151 25.7722C31.0906 25.1566 32.3973 25.3022 33.214 26.1233L34.7995 27.7089C37.1762 25.9566 38.6662 23.1533 38.6662 20.1111C38.6662 14.9033 34.4295 10.6667 29.2218 10.6667C24.014 10.6667 19.7773 14.9033 19.7773 20.1111C19.7773 22.7989 20.9251 25.3666 22.9284 27.1566ZM29.644 20.9444H28.7995C27.5007 20.9444 26.444 19.8878 26.444 18.5889C26.444 17.4211 27.2862 16.46 28.3884 16.2644V15.3889C28.3884 14.9289 28.7618 14.5556 29.2218 14.5556C29.6818 14.5556 30.0551 14.9289 30.0551 15.3889V16.2222H31.1662C31.6262 16.2222 31.9995 16.5956 31.9995 17.0556C31.9995 17.5156 31.6262 17.8889 31.1662 17.8889H28.7995C28.4195 17.8889 28.1107 18.1978 28.1107 18.5778C28.1107 18.9689 28.4195 19.2778 28.7995 19.2778H29.644C30.9429 19.2778 31.9995 20.3344 31.9995 21.6333C31.9995 22.8011 31.1573 23.7622 30.0551 23.9578V24.8322C30.0551 25.2922 29.6818 25.6655 29.2218 25.6655C28.7618 25.6655 28.3884 25.2922 28.3884 24.8322V24H27.2773C26.8173 24 26.444 23.6266 26.444 23.1666C26.444 22.7066 26.8173 22.3333 27.2773 22.3333H29.644C30.024 22.3333 30.3329 22.0244 30.3329 21.6444C30.3329 21.2533 30.024 20.9444 29.644 20.9444Z" fill="white"/>
<path d="M44.2217 22.8889H39.7773C39.3284 22.8889 38.9217 23.16 38.7506 23.5744C38.5784 23.99 38.6739 24.4677 38.9917 24.7855L40.4284 26.2222L35.8884 30.7622L32.2295 27.1033C31.8662 26.7377 31.2951 26.6744 30.8595 26.9444L19.1929 34.1666C18.6707 34.4899 18.5107 35.1744 18.8329 35.6955C19.0429 36.0355 19.4062 36.2221 19.7784 36.2221C19.9784 36.2221 20.1796 36.1688 20.3618 36.0555L31.2795 29.2966L35.1017 33.1188C35.5362 33.5533 36.2384 33.5533 36.6728 33.1188L41.9995 27.7933L43.4361 29.2299C43.6484 29.4422 43.9328 29.5555 44.2217 29.5555C44.365 29.5555 44.5095 29.5277 44.6473 29.4711C45.0628 29.2988 45.3328 28.8933 45.3328 28.4444V24C45.3328 23.3866 44.8361 22.8889 44.2217 22.8889Z" fill="white"/>
</svg>
