<svg width="56" height="48" viewBox="0 0 56 48" fill="none" xmlns="http://www.w3.org/2000/svg">
<circle cx="24" cy="24" r="24" fill="#00AAFF" fill-opacity="0.4"/>
<rect x="8" width="48" height="48" rx="24" fill="#00AAFF"/>
<rect x="8" width="48" height="48" rx="24" fill="black" fill-opacity="0.2"/>
<path d="M43 22.9422V25.0577C43 25.9506 42.2561 26.677 41.3418 26.677H40.7021V31.237C40.7021 31.6093 40.426 31.9439 40.0482 31.993C40.012 31.9977 39.9758 32 39.9402 32C39.6089 32 39.3167 31.8001 39.2232 31.4816C39.167 31.3602 38.5225 30.0892 35.5126 28.3629C33.2259 27.0514 30.8403 26.7389 29.6119 26.6698C29.4024 27.1969 28.8787 27.5721 28.2659 27.5721H28.063L28.4886 30.0264C28.5416 30.3316 28.4547 30.6425 28.25 30.8791C28.0452 31.1158 27.7458 31.2515 27.4285 31.2515H26.1408C25.6144 31.2515 25.1685 30.8836 25.0807 30.3769L24.5943 27.5721H23.8387C23.0421 27.5721 22.394 26.9392 22.394 26.1614V26.1408H22.2148C21.5449 26.1408 21 25.6087 21 24.9546V23.0453C21 22.3913 21.5449 21.8592 22.2148 21.8592H22.394V21.8386C22.394 21.0608 23.0421 20.4279 23.8387 20.4279H28.2658C28.8786 20.4279 29.4023 20.8031 29.6118 21.3302C30.8402 21.2611 33.2258 20.9486 35.5125 19.6371C38.5223 17.9109 39.1669 16.6398 39.2231 16.5184C39.3266 16.1656 39.6739 15.9584 40.0482 16.007C40.4261 16.0561 40.7021 16.3907 40.7021 16.763V21.3229H41.3418C42.2561 21.3229 43 22.0494 43 22.9422Z" fill="white"/>
</svg>
