<svg width="56" height="48" viewBox="0 0 56 48" fill="none" xmlns="http://www.w3.org/2000/svg">
<circle cx="24" cy="24" r="24" fill="#FF4053" fill-opacity="0.4"/>
<rect x="8" width="48" height="48" rx="24" fill="#FF4053"/>
<path d="M41.6813 21.1912H40.6594V18.2536C40.6594 13.3349 36.7748 9.33331 31.9999 9.33331C27.2251 9.33331 23.3403 13.3349 23.3403 18.2536V21.1912H22.3186C21.7744 21.1912 21.3333 21.6456 21.3333 22.2062V28.7223C21.3333 34.2056 25.6639 38.6666 30.987 38.6666H33.0128C38.3359 38.6666 42.6666 34.2056 42.6666 28.7223V22.2062C42.6666 21.6455 42.2254 21.1912 41.6813 21.1912ZM32.9852 30.1628V32.9354C32.9852 33.496 32.5441 33.9504 31.9999 33.9504C31.4558 33.9504 31.0146 33.496 31.0146 32.9354V30.1628C29.8433 29.7419 29.0002 28.5932 29.0002 27.2448C29.0002 25.541 30.3459 24.1548 31.9999 24.1548C33.6539 24.1548 34.9996 25.541 34.9996 27.2448C34.9996 28.5932 34.1566 29.7419 32.9852 30.1628ZM38.6888 21.1912H25.3109V18.2536C25.3109 14.4542 28.3117 11.3633 31.9999 11.3633C35.6882 11.3633 38.6888 14.4542 38.6888 18.2536V21.1912Z" fill="white"/>
</svg>
