<svg width="20" height="20" viewBox="0 0 20 20" fill="none" xmlns="http://www.w3.org/2000/svg">
<path d="M14.4108 4.41058C14.7363 4.08514 15.2638 4.08514 15.5892 4.41058C15.9146 4.73602 15.9146 5.26353 15.5892 5.58897L11.1784 9.99977L15.5892 14.4106L15.6462 14.4741C15.9131 14.8014 15.8943 15.2839 15.5892 15.589C15.2841 15.8941 14.8016 15.9129 14.4743 15.6459L14.4108 15.589L10 11.1782L5.58921 15.589C5.26377 15.9144 4.73626 15.9144 4.41083 15.589C4.08539 15.2635 4.08539 14.736 4.41083 14.4106L8.82163 9.99977L4.41083 5.58897C4.08539 5.26353 4.08539 4.73602 4.41083 4.41058C4.73626 4.08514 5.26377 4.08514 5.58921 4.41058L10 8.82139L14.4108 4.41058Z" fill="black"/>
</svg>
